<svg xmlns="http://www.w3.org/2000/svg" xmlns:xlink="http://www.w3.org/1999/xlink" version="1.1" width="720pt" height="432pt" viewBox="0 0 720 432">
<defs>
<clipPath id="clip_0">
<path transform="matrix(1,0,0,-1,0,432)" d="M58.8 52.8H709.2V400.19999H58.8Z"/>
</clipPath>
<clipPath id="clip_1">
<path transform="matrix(1,0,0,-1,0,432)" d="M58.8 52.8H709.2V400.19999H58.8Z"/>
</clipPath>
<clipPath id="clip_2">
<path transform="matrix(1,0,0,-1,0,432)" d="M58.8 52.8H709.2V400.19999H58.8Z"/>
</clipPath>
<g id="font_3_49">
<path transform="matrix(.001,0,0,.001,0,0)" d="M124 83H285V639L110 604V694L284 729H383V83H544V0H124V83Z"/>
</g>
<clipPath id="clip_4">
<path transform="matrix(1,0,0,-1,0,432)" d="M58.8 52.8H709.2V400.19999H58.8Z"/>
</clipPath>
<g id="font_3_50">
<path transform="matrix(.001,0,0,.001,0,0)" d="M192 83H536V0H73V83C110 121 161 173 226 239 290 304 331 346 348 365 380 400 402 430 414 455 426 479 433 504 433 528 433 566 419 598 392 622 365 646 330 659 286 659 255 659 222 653 188 643 154 632 117 616 78 594V694C118 710 155 722 189 730 223 738 255 742 284 742 359 742 419 723 464 685 509 647 532 597 532 534 532 504 526 475 515 449 504 422 484 390 454 354 446 344 420 317 376 272 332 227 271 164 192 83Z"/>
</g>
<clipPath id="clip_5">
<path transform="matrix(1,0,0,-1,0,432)" d="M58.8 52.8H709.2V400.19999H58.8Z"/>
</clipPath>
<g id="font_3_51">
<path transform="matrix(.001,0,0,.001,0,0)" d="M406 393C453 383 490 362 516 330 542 298 556 258 556 212 556 140 531 84 482 45 432 6 362-13 271-13 240-13 208-10 176-4 144 1 110 10 76 22V117C103 101 133 89 166 81 198 73 232 69 268 69 330 69 377 81 409 105 441 129 458 165 458 212 458 254 443 288 413 312 383 336 341 349 287 349H202V430H291C339 430 376 439 402 459 428 478 441 506 441 543 441 580 427 609 401 629 374 649 336 659 287 659 260 659 231 656 200 650 169 644 135 635 98 623V711C135 721 170 729 203 734 235 739 266 742 296 742 370 742 429 725 473 691 517 657 539 611 539 553 539 513 527 479 504 451 481 423 448 403 406 393Z"/>
</g>
<clipPath id="clip_6">
<path transform="matrix(1,0,0,-1,0,432)" d="M58.8 52.8H709.2V400.19999H58.8Z"/>
</clipPath>
<g id="font_3_52">
<path transform="matrix(.001,0,0,.001,0,0)" d="M378 643 129 254H378V643ZM352 729H476V254H580V172H476V0H378V172H49V267L352 729Z"/>
</g>
<clipPath id="clip_7">
<path transform="matrix(1,0,0,-1,0,432)" d="M58.8 52.8H709.2V400.19999H58.8Z"/>
</clipPath>
<g id="font_3_53">
<path transform="matrix(.001,0,0,.001,0,0)" d="M108 729H495V646H198V467C212 472 227 476 241 478 255 480 270 482 284 482 365 482 429 459 477 415 525 370 549 310 549 234 549 155 524 94 475 51 426 8 357-13 269-13 238-13 207-10 175-6 143-1 111 6 77 17V116C106 100 136 88 168 80 199 72 232 69 267 69 323 69 368 83 401 113 433 143 450 183 450 234 450 284 433 324 401 354 368 384 323 399 267 399 241 399 214 396 188 390 162 384 135 375 108 363V729Z"/>
</g>
<clipPath id="clip_8">
<path transform="matrix(1,0,0,-1,0,432)" d="M58.8 52.8H709.2V400.19999H58.8Z"/>
</clipPath>
<g id="font_3_54">
<path transform="matrix(.001,0,0,.001,0,0)" d="M330 404C286 404 251 388 225 358 199 328 186 286 186 234 186 181 199 139 225 109 251 79 286 64 330 64 374 64 409 79 435 109 461 139 474 181 474 234 474 286 461 328 435 358 409 388 374 404 330 404ZM526 713V623C501 635 476 644 451 650 425 656 400 659 376 659 310 659 260 637 226 593 192 549 172 482 168 394 187 422 211 444 240 459 269 474 301 482 336 482 409 482 467 459 509 415 551 371 573 310 573 234 573 159 550 99 506 54 462 9 403-13 330-13 246-13 181 19 137 83 92 147 70 241 70 364 70 479 97 571 152 639 206 707 280 742 372 742 396 742 421 739 447 735 472 730 498 723 526 713Z"/>
</g>
<clipPath id="clip_9">
<path transform="matrix(1,0,0,-1,0,432)" d="M58.8 52.8H709.2V400.19999H58.8Z"/>
</clipPath>
<g id="font_3_55">
<path transform="matrix(.001,0,0,.001,0,0)" d="M82 729H551V687L286 0H183L432 646H82V729Z"/>
</g>
<clipPath id="clip_10">
<path transform="matrix(1,0,0,-1,0,432)" d="M58.8 52.8H709.2V400.19999H58.8Z"/>
</clipPath>
<g id="font_3_56">
<path transform="matrix(.001,0,0,.001,0,0)" d="M318 346C271 346 234 333 207 308 180 283 167 249 167 205 167 161 180 126 207 101 234 76 271 64 318 64 364 64 401 76 428 102 455 127 469 161 469 205 469 249 455 283 429 308 402 333 365 346 318 346ZM219 388C177 398 144 418 120 447 96 476 85 511 85 553 85 611 105 657 147 691 188 725 245 742 318 742 390 742 447 725 489 691 530 657 551 611 551 553 551 511 539 476 515 447 491 418 459 398 417 388 464 377 501 355 528 323 554 291 568 251 568 205 568 134 546 80 503 43 459 5 397-13 317-13 237-13 175 5 132 43 89 80 68 134 68 205 68 251 81 291 108 323 134 355 171 377 219 388ZM183 544C183 506 194 476 218 455 242 434 275 424 318 424 360 424 393 434 417 455 441 476 453 506 453 544 453 582 441 611 417 632 393 653 360 664 318 664 275 664 242 653 218 632 194 611 183 582 183 544Z"/>
</g>
<clipPath id="clip_11">
<path transform="matrix(1,0,0,-1,0,432)" d="M58.8 52.8H709.2V400.19999H58.8Z"/>
</clipPath>
<g id="font_3_57">
<path transform="matrix(.001,0,0,.001,0,0)" d="M110 15V105C134 93 159 84 185 78 210 72 235 69 260 69 324 69 374 90 408 134 442 178 462 244 468 334 448 306 424 284 396 269 367 254 335 247 300 247 226 247 168 269 126 313 84 357 63 417 63 494 63 568 85 628 129 674 173 719 232 742 306 742 390 742 455 709 499 645 543 580 566 486 566 364 566 248 538 157 484 89 429 21 356-13 264-13 239-13 214-10 189-6 163-2 137 5 110 15ZM306 324C350 324 385 339 411 369 437 399 450 441 450 494 450 546 437 588 411 618 385 648 350 664 306 664 262 664 227 648 201 618 175 588 162 546 162 494 162 441 175 399 201 369 227 339 262 324 306 324Z"/>
</g>
<clipPath id="clip_12">
<path transform="matrix(1,0,0,-1,0,432)" d="M58.8 52.8H709.2V400.19999H58.8Z"/>
</clipPath>
<g id="font_3_48">
<path transform="matrix(.001,0,0,.001,0,0)" d="M318 664C267 664 229 639 203 589 177 539 165 464 165 364 165 264 177 189 203 139 229 89 267 64 318 64 369 64 407 89 433 139 458 189 471 264 471 364 471 464 458 539 433 589 407 639 369 664 318 664ZM318 742C399 742 461 709 505 645 548 580 570 486 570 364 570 241 548 147 505 83 461 19 399-13 317-13 235-13 173 19 130 83 87 147 66 241 66 364 66 486 87 580 130 645 173 709 236 742 318 742Z"/>
</g>
<g id="font_3_84">
<path transform="matrix(.001,0,0,.001,0,0)" d="M-2 729H614V646H355V0H256V646H-2V729Z"/>
</g>
<g id="font_3_117">
<path transform="matrix(.001,0,0,.001,0,0)" d="M85 216V547H175V219C175 167 185 129 205 103 225 77 255 64 296 64 344 64 383 79 411 110 439 141 453 183 453 237V547H543V0H453V84C431 50 405 26 377 10 348-5 315-13 277-13 214-13 166 6 134 45 101 83 85 140 85 216ZM311 560V560Z"/>
</g>
<g id="font_3_114">
<path transform="matrix(.001,0,0,.001,0,0)" d="M411 463C401 469 390 473 378 476 366 478 353 480 339 480 288 480 249 463 222 430 194 397 181 350 181 288V0H91V547H181V462C199 495 224 520 254 536 284 552 321 560 365 560 371 560 378 559 386 559 393 558 401 557 411 555V463Z"/>
</g>
<g id="font_3_110">
<path transform="matrix(.001,0,0,.001,0,0)" d="M549 330V0H459V327C459 379 448 417 428 443 408 469 378 482 338 482 289 482 251 466 223 435 195 404 181 362 181 309V0H91V547H181V462C202 494 227 519 257 535 286 551 320 560 358 560 420 560 468 540 500 501 532 462 549 405 549 330Z"/>
</g>
<g id="font_3_115">
<path transform="matrix(.001,0,0,.001,0,0)" d="M443 531V446C417 458 391 468 364 475 336 481 308 485 279 485 234 485 200 478 178 464 156 450 145 430 145 403 145 382 153 366 169 354 185 342 217 330 265 320L296 313C360 299 405 279 432 255 458 230 472 195 472 151 472 100 452 60 412 31 372 1 316-13 246-13 216-13 186-10 154-5 122 0 89 8 54 20V113C87 95 120 82 152 74 184 65 216 61 248 61 290 61 323 68 346 82 368 96 380 117 380 144 380 168 371 187 355 200 339 213 303 226 247 238L216 245C160 257 119 275 95 299 70 323 58 356 58 399 58 450 76 490 112 518 148 546 200 560 268 560 301 560 332 557 362 552 391 547 418 540 443 531Z"/>
</g>
<clipPath id="clip_13">
<path transform="matrix(1,0,0,-1,0,432)" d="M58.8 52.8H709.2V400.19999H58.8Z"/>
</clipPath>
<g id="font_3_46">
<path transform="matrix(.001,0,0,.001,0,0)" d="M107 124H210V0H107V124Z"/>
</g>
<clipPath id="clip_14">
<path transform="matrix(1,0,0,-1,0,432)" d="M58.8 52.8H709.2V400.19999H58.8Z"/>
</clipPath>
<clipPath id="clip_15">
<path transform="matrix(1,0,0,-1,0,432)" d="M58.8 52.8H709.2V400.19999H58.8Z"/>
</clipPath>
<clipPath id="clip_16">
<path transform="matrix(1,0,0,-1,0,432)" d="M58.8 52.8H709.2V400.19999H58.8Z"/>
</clipPath>
<g id="font_3_67">
<path transform="matrix(.001,0,0,.001,0,0)" d="M644 673V569C610 599 575 622 537 638 499 653 460 661 418 661 334 661 270 635 226 584 182 533 160 460 160 364 160 268 182 194 226 143 270 92 334 67 418 67 460 67 499 74 537 90 575 105 610 128 644 159V56C609 32 572 15 534 4 496-7 455-13 412-13 302-13 215 20 151 87 87 154 56 246 56 364 56 481 87 573 151 641 215 708 302 742 412 742 456 742 497 736 535 725 573 713 610 696 644 673Z"/>
</g>
<g id="font_3_109">
<path transform="matrix(.001,0,0,.001,0,0)" d="M520 442C542 482 569 511 600 531 631 550 668 560 711 560 767 560 811 540 842 500 873 460 889 403 889 330V0H799V327C799 379 789 418 771 444 752 469 724 482 686 482 639 482 602 466 575 435 548 404 535 362 535 309V0H445V327C445 379 435 418 417 444 398 469 369 482 331 482 285 482 248 466 221 435 194 404 181 362 181 309V0H91V547H181V462C201 495 226 520 255 536 283 552 317 560 357 560 397 560 430 550 458 530 486 510 506 480 520 442Z"/>
</g>
<g id="font_3_108">
<path transform="matrix(.001,0,0,.001,0,0)" d="M94 760H184V0H94V760Z"/>
</g>
<g id="font_3_97">
<path transform="matrix(.001,0,0,.001,0,0)" d="M343 275C270 275 220 266 192 250 164 233 150 205 150 165 150 133 160 107 181 89 202 70 231 61 267 61 317 61 357 78 387 114 417 149 432 196 432 255V275H343ZM522 312V0H432V83C411 49 385 25 355 10 325-5 287-13 243-13 187-13 142 2 109 33 76 64 60 106 60 159 60 220 80 266 122 298 163 329 224 345 306 345H432V354C432 395 418 427 391 450 364 472 326 484 277 484 245 484 215 480 185 472 155 464 127 453 100 439V522C132 534 164 544 195 550 226 556 256 560 286 560 365 560 424 539 463 498 502 457 522 395 522 312Z"/>
</g>
<g id="font_3_116">
<path transform="matrix(.001,0,0,.001,0,0)" d="M183 702V547H368V477H183V180C183 135 189 106 201 94 213 81 238 75 276 75H368V0H276C206 0 158 13 132 39 106 65 93 112 93 180V477H27V547H93V702H183Z"/>
</g>
<g id="font_3_105">
<path transform="matrix(.001,0,0,.001,0,0)" d="M94 547H184V0H94V547ZM94 760H184V646H94V760Z"/>
</g>
<g id="font_3_118">
<path transform="matrix(.001,0,0,.001,0,0)" d="M30 547H125L296 88 467 547H562L357 0H235L30 547Z"/>
</g>
<g id="font_3_101">
<path transform="matrix(.001,0,0,.001,0,0)" d="M562 296V252H149C153 190 171 142 205 110 238 78 284 62 344 62 378 62 412 66 444 74 476 82 509 95 541 113V28C509 14 476 3 442-3 408-9 373-13 339-13 251-13 182 12 131 62 80 112 55 181 55 268 55 357 79 428 127 481 175 533 241 560 323 560 397 560 455 536 498 489 540 441 562 377 562 296ZM472 322C471 371 457 410 431 440 404 469 368 484 324 484 274 484 234 469 204 441 174 413 156 373 152 322H472Z"/>
</g>
<g id="font_3_32">
</g>
<g id="font_3_65">
<path transform="matrix(.001,0,0,.001,0,0)" d="M342 632 208 269H476L342 632ZM286 729H398L676 0H573L507 187H178L112 0H8L286 729Z"/>
</g>
<g id="font_3_99">
<path transform="matrix(.001,0,0,.001,0,0)" d="M488 526V442C462 456 437 466 411 473 385 480 360 484 334 484 276 484 230 465 198 428 166 391 150 339 150 273 150 206 166 154 198 117 230 80 276 62 334 62 360 62 385 65 411 72 437 79 462 90 488 104V21C462 9 436 0 410-5 383-10 354-13 324-13 242-13 176 12 128 64 79 115 55 185 55 273 55 362 79 432 128 483 177 534 244 560 330 560 358 560 385 557 411 551 437 545 463 537 488 526Z"/>
</g>
<g id="font_3_121">
<path transform="matrix(.001,0,0,.001,0,0)" d="M322-50C296-114 271-157 247-177 223-197 191-207 151-207H79V-132H132C156-132 175-126 189-114 203-102 218-75 235-31L251 9 30 547H125L296 119 467 547H562L322-50Z"/>
</g>
<clipPath id="clip_17">
<path transform="matrix(1,0,0,-1,0,432)" d="M58.8 52.8H709.2V400.19999H58.8Z"/>
</clipPath>
<clipPath id="clip_18">
<path transform="matrix(1,0,0,-1,88.36364,348.62013)" d="M-8-8H8V8H-8Z"/>
</clipPath>
<clipPath id="clip_19">
<path transform="matrix(1,0,0,-1,154.06061,252.4919)" d="M-8-8H8V8H-8Z"/>
</clipPath>
<clipPath id="clip_20">
<path transform="matrix(1,0,0,-1,219.75757,208.12503)" d="M-8-8H8V8H-8Z"/>
</clipPath>
<clipPath id="clip_21">
<path transform="matrix(1,0,0,-1,285.45454,171.15264)" d="M-8-8H8V8H-8Z"/>
</clipPath>
<clipPath id="clip_22">
<path transform="matrix(1,0,0,-1,351.1515,148.9692)" d="M-8-8H8V8H-8Z"/>
</clipPath>
<clipPath id="clip_23">
<path transform="matrix(1,0,0,-1,416.84846,134.18024)" d="M-8-8H8V8H-8Z"/>
</clipPath>
<clipPath id="clip_24">
<path transform="matrix(1,0,0,-1,482.5454,104.602329)" d="M-8-8H8V8H-8Z"/>
</clipPath>
<clipPath id="clip_25">
<path transform="matrix(1,0,0,-1,548.2424,86.11613)" d="M-8-8H8V8H-8Z"/>
</clipPath>
<clipPath id="clip_26">
<path transform="matrix(1,0,0,-1,613.93936,75.02441)" d="M-8-8H8V8H-8Z"/>
</clipPath>
<clipPath id="clip_27">
<path transform="matrix(1,0,0,-1,679.6363,60.23545)" d="M-8-8H8V8H-8Z"/>
</clipPath>
<clipPath id="clip_28">
<path transform="matrix(1,0,0,-1,0,432)" d="M58.8 52.8H709.2V400.19999H58.8Z"/>
</clipPath>
<clipPath id="clip_29">
<path transform="matrix(1,0,0,-1,0,432)" d="M58.8 52.8H709.2V400.19999H58.8Z"/>
</clipPath>
<clipPath id="clip_30">
<path transform="matrix(1,0,0,-1,88.36364,363.4091)" d="M-8-8H8V8H-8Z"/>
</clipPath>
<clipPath id="clip_31">
<path transform="matrix(1,0,0,-1,154.06061,319.0422)" d="M-8-8H8V8H-8Z"/>
</clipPath>
<clipPath id="clip_32">
<path transform="matrix(1,0,0,-1,219.75757,296.85877)" d="M-8-8H8V8H-8Z"/>
</clipPath>
<clipPath id="clip_33">
<path transform="matrix(1,0,0,-1,285.45454,274.67533)" d="M-8-8H8V8H-8Z"/>
</clipPath>
<clipPath id="clip_34">
<path transform="matrix(1,0,0,-1,351.1515,259.88636)" d="M-8-8H8V8H-8Z"/>
</clipPath>
<clipPath id="clip_35">
<path transform="matrix(1,0,0,-1,416.84846,252.49187)" d="M-8-8H8V8H-8Z"/>
</clipPath>
<clipPath id="clip_36">
<path transform="matrix(1,0,0,-1,482.5454,245.09738)" d="M-8-8H8V8H-8Z"/>
</clipPath>
<clipPath id="clip_37">
<path transform="matrix(1,0,0,-1,548.2424,234.00566)" d="M-8-8H8V8H-8Z"/>
</clipPath>
<clipPath id="clip_38">
<path transform="matrix(1,0,0,-1,613.93936,222.91394)" d="M-8-8H8V8H-8Z"/>
</clipPath>
<clipPath id="clip_39">
<path transform="matrix(1,0,0,-1,679.6363,215.51946)" d="M-8-8H8V8H-8Z"/>
</clipPath>
<g id="font_3_79">
<path transform="matrix(.001,0,0,.001,0,0)" d="M394 662C322 662 265 635 223 582 181 528 160 456 160 364 160 272 181 199 223 146 265 92 322 66 394 66 465 66 522 92 564 146 606 199 627 272 627 364 627 456 606 528 564 582 522 635 465 662 394 662ZM394 742C496 742 577 707 639 639 700 571 731 479 731 364 731 248 700 157 639 89 577 21 496-13 394-13 291-13 209 21 148 89 86 157 56 248 56 364 56 479 86 571 148 639 209 707 291 742 394 742Z"/>
</g>
<g id="font_3_77">
<path transform="matrix(.001,0,0,.001,0,0)" d="M98 729H245L431 233 618 729H765V0H669V640L481 140H382L194 640V0H98V729Z"/>
</g>
<g id="font_3_78">
<path transform="matrix(.001,0,0,.001,0,0)" d="M98 729H231L554 119V729H650V0H517L194 610V0H98V729Z"/>
</g>
<g id="font_3_73">
<path transform="matrix(.001,0,0,.001,0,0)" d="M98 729H197V0H98V729Z"/>
</g>
<g id="font_3_104">
<path transform="matrix(.001,0,0,.001,0,0)" d="M549 330V0H459V327C459 379 448 417 428 443 408 469 378 482 338 482 289 482 251 466 223 435 195 404 181 362 181 309V0H91V760H181V462C202 494 227 519 257 535 286 551 320 560 358 560 420 560 468 540 500 501 532 462 549 405 549 330Z"/>
</g>
<g id="font_3_83">
<path transform="matrix(.001,0,0,.001,0,0)" d="M535 705V609C497 627 462 640 429 649 395 657 363 662 333 662 279 662 237 651 208 631 179 610 165 580 165 542 165 510 174 485 194 469 213 452 250 439 304 429L364 417C437 403 491 378 526 343 561 307 579 260 579 201 579 130 555 77 508 41 460 5 391-13 300-13 265-13 228-9 189-2 150 5 110 16 69 32V134C109 111 148 94 186 83 224 71 262 66 300 66 356 66 399 77 430 99 460 121 476 152 476 194 476 230 465 258 443 278 421 298 385 313 335 323L275 335C201 349 148 372 115 404 82 435 66 478 66 534 66 598 88 649 134 686 179 723 242 742 322 742 356 742 390 739 426 733 461 727 497 717 535 705Z"/>
</g>
<g id="font_3_102">
<path transform="matrix(.001,0,0,.001,0,0)" d="M371 760V685H285C253 685 230 678 218 665 205 652 199 629 199 595V547H347V477H199V0H109V477H23V547H109V585C109 645 123 690 151 718 179 746 224 760 286 760H371Z"/>
</g>
<g id="font_3_45">
<path transform="matrix(.001,0,0,.001,0,0)" d="M49 314H312V234H49V314Z"/>
</g>
<g id="font_3_112">
<path transform="matrix(.001,0,0,.001,0,0)" d="M181 82V-207H91V547H181V464C199 496 223 520 252 536 281 552 316 560 356 560 422 560 476 533 518 481 559 428 580 359 580 273 580 187 559 117 518 65 476 13 422-13 356-13 316-13 281-5 252 10 223 25 199 49 181 82ZM487 273C487 339 473 390 446 428 418 466 381 485 334 485 286 485 249 466 222 428 194 390 181 339 181 273 181 207 194 155 222 117 249 79 286 61 334 61 381 61 418 79 446 117 473 155 487 207 487 273Z"/>
</g>
<g id="font_3_111">
<path transform="matrix(.001,0,0,.001,0,0)" d="M306 484C258 484 220 465 192 427 164 389 150 338 150 273 150 207 163 156 191 118 219 80 257 62 306 62 354 62 392 80 420 118 448 156 462 207 462 273 462 337 448 389 420 427 392 465 354 484 306 484ZM306 560C384 560 445 534 490 484 534 433 557 363 557 273 557 183 534 113 490 63 445 12 384-13 306-13 227-13 165 12 121 63 77 113 55 183 55 273 55 363 77 433 121 484 165 534 227 560 306 560Z"/>
</g>
<g id="font_3_68">
<path transform="matrix(.001,0,0,.001,0,0)" d="M197 648V81H316C416 81 490 103 537 149 583 195 607 267 607 365 607 463 583 534 537 580 490 625 416 648 316 648H197ZM98 729H301C442 729 546 699 612 641 678 582 711 490 711 365 711 239 677 147 611 88 545 29 441 0 301 0H98V729Z"/>
</g>
<g id="font_3_100">
<path transform="matrix(.001,0,0,.001,0,0)" d="M454 464V760H544V0H454V82C435 49 411 25 382 10 353-5 319-13 279-13 213-13 159 13 117 65 75 117 55 187 55 273 55 359 75 428 117 481 159 533 213 560 279 560 319 560 353 552 382 536 411 520 435 496 454 464ZM148 273C148 207 161 155 188 117 215 79 252 61 300 61 348 61 385 79 413 117 440 155 454 207 454 273 454 339 440 390 413 428 385 466 348 485 300 485 252 485 215 466 188 428 161 390 148 339 148 273Z"/>
</g>
<g id="font_3_66">
<path transform="matrix(.001,0,0,.001,0,0)" d="M197 348V81H355C408 81 447 92 473 114 498 136 511 169 511 215 511 260 498 293 473 315 447 337 408 348 355 348H197ZM197 648V428H343C391 428 426 437 450 455 474 473 486 500 486 538 486 574 474 602 450 620 426 638 391 648 343 648H197ZM98 729H350C425 729 483 713 524 682 564 650 585 606 585 549 585 504 574 468 553 442 532 416 502 399 462 393 510 382 548 360 575 327 601 294 615 253 615 204 615 138 592 88 548 53 504 17 441 0 360 0H98V729Z"/>
</g>
</defs>
<path transform="matrix(1,0,0,-1,0,432)" d="M58.8 52.8H709.2V400.2H58.8Z" fill="#ffffff"/>
<g clip-path="url(#clip_0)">
<g>
<path transform="matrix(1,0,0,-1,0,432)" d="M88.36363 96.09837V70.66136L154.06061 167.9727 219.75759 212.33957 285.45457 244.80133 351.15153 268.6855 416.84849 285.6928 482.54545 312.16505 548.24246 334.79216 613.9394 341.59507 679.63638 359.11997V384.4091L613.9394 372.35609 548.24246 356.9756 482.54545 342.63029 416.84849 309.9467 351.15153 297.37608 285.45457 276.89338 219.75759 235.41036 154.06061 191.04347 88.36363 96.09837Z" fill="#148b4b" fill-opacity=".1"/>
<path transform="matrix(1,0,0,-1,0,432)" stroke-width="1" stroke-linecap="butt" stroke-linejoin="round" fill="none" stroke="#148b4b" stroke-opacity=".1" d="M88.36363 96.09837V70.66136L154.06061 167.9727 219.75759 212.33957 285.45457 244.80133 351.15153 268.6855 416.84849 285.6928 482.54545 312.16505 548.24246 334.79216 613.9394 341.59507 679.63638 359.11997V384.4091L613.9394 372.35609 548.24246 356.9756 482.54545 342.63029 416.84849 309.9467 351.15153 297.37608 285.45457 276.89338 219.75759 235.41036 154.06061 191.04347 88.36363 96.09837Z"/>
</g>
</g>
<g clip-path="url(#clip_1)">
<g>
<path transform="matrix(1,0,0,-1,0,432)" d="M88.36363 317.8588V292.56968H154.06061 219.75759 285.45457 351.15153 416.84849 482.54545 548.24246 613.9394 679.63638V317.8588H613.9394 548.24246 482.54545 416.84849 351.15153 285.45457 219.75759 154.06061 88.36363Z" fill="#808080" fill-opacity=".1"/>
<path transform="matrix(1,0,0,-1,0,432)" stroke-width="1" stroke-linecap="butt" stroke-linejoin="round" fill="none" stroke="#808080" stroke-opacity=".1" d="M88.36363 317.8588V292.56968H154.06061 219.75759 285.45457 351.15153 416.84849 482.54545 548.24246 613.9394 679.63638V317.8588H613.9394 548.24246 482.54545 416.84849 351.15153 285.45457 219.75759 154.06061 88.36363Z"/>
</g>
</g>
<g clip-path="url(#clip_2)">
<path transform="matrix(1,0,0,-1,0,432)" stroke-width=".5" stroke-linecap="butt" stroke-dasharray="1.85,.8" stroke-linejoin="round" fill="none" stroke="#b0b0b0" d="M88.36363 52.8V400.2"/>
</g>
<path transform="matrix(1,0,0,-1,0,432)" d="M88.36363 52.8V49.3"/>
<path transform="matrix(1,0,0,-1,0,432)" stroke-width=".8" stroke-linecap="butt" stroke-linejoin="round" fill="none" stroke="#000000" d="M88.36363 52.8V49.3"/>
<use data-text="1" xlink:href="#font_3_49" transform="matrix(12,0,0,-12,84.54333,395.325)"/>
<g clip-path="url(#clip_4)">
<path transform="matrix(1,0,0,-1,0,432)" stroke-width=".5" stroke-linecap="butt" stroke-dasharray="1.85,.8" stroke-linejoin="round" fill="none" stroke="#b0b0b0" d="M154.06061 52.8V400.2"/>
</g>
<path transform="matrix(1,0,0,-1,0,432)" d="M154.06061 52.8V49.3"/>
<path transform="matrix(1,0,0,-1,0,432)" stroke-width=".8" stroke-linecap="butt" stroke-linejoin="round" fill="none" stroke="#000000" d="M154.06061 52.8V49.3"/>
<use data-text="2" xlink:href="#font_3_50" transform="matrix(12,0,0,-12,150.2403,395.325)"/>
<g clip-path="url(#clip_5)">
<path transform="matrix(1,0,0,-1,0,432)" stroke-width=".5" stroke-linecap="butt" stroke-dasharray="1.85,.8" stroke-linejoin="round" fill="none" stroke="#b0b0b0" d="M219.75759 52.8V400.2"/>
</g>
<path transform="matrix(1,0,0,-1,0,432)" d="M219.75759 52.8V49.3"/>
<path transform="matrix(1,0,0,-1,0,432)" stroke-width=".8" stroke-linecap="butt" stroke-linejoin="round" fill="none" stroke="#000000" d="M219.75759 52.8V49.3"/>
<use data-text="3" xlink:href="#font_3_51" transform="matrix(12,0,0,-12,215.93726,395.325)"/>
<g clip-path="url(#clip_6)">
<path transform="matrix(1,0,0,-1,0,432)" stroke-width=".5" stroke-linecap="butt" stroke-dasharray="1.85,.8" stroke-linejoin="round" fill="none" stroke="#b0b0b0" d="M285.45457 52.8V400.2"/>
</g>
<path transform="matrix(1,0,0,-1,0,432)" d="M285.45457 52.8V49.3"/>
<path transform="matrix(1,0,0,-1,0,432)" stroke-width=".8" stroke-linecap="butt" stroke-linejoin="round" fill="none" stroke="#000000" d="M285.45457 52.8V49.3"/>
<use data-text="4" xlink:href="#font_3_52" transform="matrix(12,0,0,-12,281.63426,395.325)"/>
<g clip-path="url(#clip_7)">
<path transform="matrix(1,0,0,-1,0,432)" stroke-width=".5" stroke-linecap="butt" stroke-dasharray="1.85,.8" stroke-linejoin="round" fill="none" stroke="#b0b0b0" d="M351.15153 52.8V400.2"/>
</g>
<path transform="matrix(1,0,0,-1,0,432)" d="M351.15153 52.8V49.3"/>
<path transform="matrix(1,0,0,-1,0,432)" stroke-width=".8" stroke-linecap="butt" stroke-linejoin="round" fill="none" stroke="#000000" d="M351.15153 52.8V49.3"/>
<use data-text="5" xlink:href="#font_3_53" transform="matrix(12,0,0,-12,347.3312,395.325)"/>
<g clip-path="url(#clip_8)">
<path transform="matrix(1,0,0,-1,0,432)" stroke-width=".5" stroke-linecap="butt" stroke-dasharray="1.85,.8" stroke-linejoin="round" fill="none" stroke="#b0b0b0" d="M416.84849 52.8V400.2"/>
</g>
<path transform="matrix(1,0,0,-1,0,432)" d="M416.84849 52.8V49.3"/>
<path transform="matrix(1,0,0,-1,0,432)" stroke-width=".8" stroke-linecap="butt" stroke-linejoin="round" fill="none" stroke="#000000" d="M416.84849 52.8V49.3"/>
<use data-text="6" xlink:href="#font_3_54" transform="matrix(12,0,0,-12,413.02818,395.325)"/>
<g clip-path="url(#clip_9)">
<path transform="matrix(1,0,0,-1,0,432)" stroke-width=".5" stroke-linecap="butt" stroke-dasharray="1.85,.8" stroke-linejoin="round" fill="none" stroke="#b0b0b0" d="M482.54545 52.8V400.2"/>
</g>
<path transform="matrix(1,0,0,-1,0,432)" d="M482.54545 52.8V49.3"/>
<path transform="matrix(1,0,0,-1,0,432)" stroke-width=".8" stroke-linecap="butt" stroke-linejoin="round" fill="none" stroke="#000000" d="M482.54545 52.8V49.3"/>
<use data-text="7" xlink:href="#font_3_55" transform="matrix(12,0,0,-12,478.72514,395.325)"/>
<g clip-path="url(#clip_10)">
<path transform="matrix(1,0,0,-1,0,432)" stroke-width=".5" stroke-linecap="butt" stroke-dasharray="1.85,.8" stroke-linejoin="round" fill="none" stroke="#b0b0b0" d="M548.24246 52.8V400.2"/>
</g>
<path transform="matrix(1,0,0,-1,0,432)" d="M548.24246 52.8V49.3"/>
<path transform="matrix(1,0,0,-1,0,432)" stroke-width=".8" stroke-linecap="butt" stroke-linejoin="round" fill="none" stroke="#000000" d="M548.24246 52.8V49.3"/>
<use data-text="8" xlink:href="#font_3_56" transform="matrix(12,0,0,-12,544.4221,395.325)"/>
<g clip-path="url(#clip_11)">
<path transform="matrix(1,0,0,-1,0,432)" stroke-width=".5" stroke-linecap="butt" stroke-dasharray="1.85,.8" stroke-linejoin="round" fill="none" stroke="#b0b0b0" d="M613.9394 52.8V400.2"/>
</g>
<path transform="matrix(1,0,0,-1,0,432)" d="M613.9394 52.8V49.3"/>
<path transform="matrix(1,0,0,-1,0,432)" stroke-width=".8" stroke-linecap="butt" stroke-linejoin="round" fill="none" stroke="#000000" d="M613.9394 52.8V49.3"/>
<use data-text="9" xlink:href="#font_3_57" transform="matrix(12,0,0,-12,610.1191,395.325)"/>
<g clip-path="url(#clip_12)">
<path transform="matrix(1,0,0,-1,0,432)" stroke-width=".5" stroke-linecap="butt" stroke-dasharray="1.85,.8" stroke-linejoin="round" fill="none" stroke="#b0b0b0" d="M679.63638 52.8V400.2"/>
</g>
<path transform="matrix(1,0,0,-1,0,432)" d="M679.63638 52.8V49.3"/>
<path transform="matrix(1,0,0,-1,0,432)" stroke-width=".8" stroke-linecap="butt" stroke-linejoin="round" fill="none" stroke="#000000" d="M679.63638 52.8V49.3"/>
<use data-text="1" xlink:href="#font_3_49" transform="matrix(12,0,0,-12,671.9957,395.325)"/>
<use data-text="0" xlink:href="#font_3_48" transform="matrix(12,0,0,-12,679.62777,395.325)"/>
<use data-text="T" xlink:href="#font_3_84" transform="matrix(18,0,0,-18,360.26564,415.4969)"/>
<use data-text="u" xlink:href="#font_3_117" transform="matrix(18,0,0,-18,368.52925,415.4969)"/>
<use data-text="r" xlink:href="#font_3_114" transform="matrix(18,0,0,-18,379.94126,415.4969)"/>
<use data-text="n" xlink:href="#font_3_110" transform="matrix(18,0,0,-18,387.02677,415.4969)"/>
<use data-text="s" xlink:href="#font_3_115" transform="matrix(18,0,0,-18,398.43876,415.4969)"/>
<g clip-path="url(#clip_13)">
<path transform="matrix(1,0,0,-1,0,432)" stroke-width=".5" stroke-linecap="butt" stroke-dasharray="1.85,.8" stroke-linejoin="round" fill="none" stroke="#b0b0b0" d="M58.8 120.35226H709.2"/>
</g>
<path transform="matrix(1,0,0,-1,0,432)" d="M58.8 120.35226H55.3"/>
<path transform="matrix(1,0,0,-1,0,432)" stroke-width=".8" stroke-linecap="butt" stroke-linejoin="round" fill="none" stroke="#000000" d="M58.8 120.35226H55.3"/>
<use data-text="0" xlink:href="#font_3_48" transform="matrix(12,0,0,-12,32.70625,316.21025)"/>
<use data-text="." xlink:href="#font_3_46" transform="matrix(12,0,0,-12,40.33825,316.21025)"/>
<use data-text="4" xlink:href="#font_3_52" transform="matrix(12,0,0,-12,44.15425,316.21025)"/>
<g clip-path="url(#clip_14)">
<path transform="matrix(1,0,0,-1,0,432)" stroke-width=".5" stroke-linecap="butt" stroke-dasharray="1.85,.8" stroke-linejoin="round" fill="none" stroke="#b0b0b0" d="M58.8 194.29705H709.2"/>
</g>
<path transform="matrix(1,0,0,-1,0,432)" d="M58.8 194.29705H55.3"/>
<path transform="matrix(1,0,0,-1,0,432)" stroke-width=".8" stroke-linecap="butt" stroke-linejoin="round" fill="none" stroke="#000000" d="M58.8 194.29705H55.3"/>
<use data-text="0" xlink:href="#font_3_48" transform="matrix(12,0,0,-12,32.70625,242.26546)"/>
<use data-text="." xlink:href="#font_3_46" transform="matrix(12,0,0,-12,40.33825,242.26546)"/>
<use data-text="5" xlink:href="#font_3_53" transform="matrix(12,0,0,-12,44.15425,242.26546)"/>
<g clip-path="url(#clip_15)">
<path transform="matrix(1,0,0,-1,0,432)" stroke-width=".5" stroke-linecap="butt" stroke-dasharray="1.85,.8" stroke-linejoin="round" fill="none" stroke="#b0b0b0" d="M58.8 268.24183H709.2"/>
</g>
<path transform="matrix(1,0,0,-1,0,432)" d="M58.8 268.24183H55.3"/>
<path transform="matrix(1,0,0,-1,0,432)" stroke-width=".8" stroke-linecap="butt" stroke-linejoin="round" fill="none" stroke="#000000" d="M58.8 268.24183H55.3"/>
<use data-text="0" xlink:href="#font_3_48" transform="matrix(12,0,0,-12,32.70625,168.32068)"/>
<use data-text="." xlink:href="#font_3_46" transform="matrix(12,0,0,-12,40.33825,168.32068)"/>
<use data-text="6" xlink:href="#font_3_54" transform="matrix(12,0,0,-12,44.15425,168.32068)"/>
<g clip-path="url(#clip_16)">
<path transform="matrix(1,0,0,-1,0,432)" stroke-width=".5" stroke-linecap="butt" stroke-dasharray="1.85,.8" stroke-linejoin="round" fill="none" stroke="#b0b0b0" d="M58.8 342.1866H709.2"/>
</g>
<path transform="matrix(1,0,0,-1,0,432)" d="M58.8 342.1866H55.3"/>
<path transform="matrix(1,0,0,-1,0,432)" stroke-width=".8" stroke-linecap="butt" stroke-linejoin="round" fill="none" stroke="#000000" d="M58.8 342.1866H55.3"/>
<use data-text="0" xlink:href="#font_3_48" transform="matrix(12,0,0,-12,32.70625,94.375888)"/>
<use data-text="." xlink:href="#font_3_46" transform="matrix(12,0,0,-12,40.33825,94.375888)"/>
<use data-text="7" xlink:href="#font_3_55" transform="matrix(12,0,0,-12,44.15425,94.375888)"/>
<use data-text="C" xlink:href="#font_3_67" transform="matrix(0,-18,-18,-0,24.95625,300.78126)"/>
<use data-text="u" xlink:href="#font_3_117" transform="matrix(0,-18,-18,-0,24.95625,288.21726)"/>
<use data-text="m" xlink:href="#font_3_109" transform="matrix(0,-18,-18,-0,24.95625,276.80525)"/>
<use data-text="u" xlink:href="#font_3_117" transform="matrix(0,-18,-18,-0,24.95625,259.27326)"/>
<use data-text="l" xlink:href="#font_3_108" transform="matrix(0,-18,-18,-0,24.95625,247.86125)"/>
<use data-text="a" xlink:href="#font_3_97" transform="matrix(0,-18,-18,-0,24.95625,242.85724)"/>
<use data-text="t" xlink:href="#font_3_116" transform="matrix(0,-18,-18,-0,24.95625,231.82324)"/>
<use data-text="i" xlink:href="#font_3_105" transform="matrix(0,-18,-18,-0,24.95625,224.76725)"/>
<use data-text="v" xlink:href="#font_3_118" transform="matrix(0,-18,-18,-0,24.95625,219.76325)"/>
<use data-text="e" xlink:href="#font_3_101" transform="matrix(0,-18,-18,-0,24.95625,209.10724)"/>
<use data-text=" " xlink:href="#font_3_32" transform="matrix(0,-18,-18,-0,24.95625,198.03725)"/>
<use data-text="A" xlink:href="#font_3_65" transform="matrix(0,-18,-18,-0,24.95625,192.31325)"/>
<use data-text="c" xlink:href="#font_3_99" transform="matrix(0,-18,-18,-0,24.95625,180.31375)"/>
<use data-text="c" xlink:href="#font_3_99" transform="matrix(0,-18,-18,-0,24.95625,170.41376)"/>
<use data-text="u" xlink:href="#font_3_117" transform="matrix(0,-18,-18,-0,24.95625,160.51377)"/>
<use data-text="r" xlink:href="#font_3_114" transform="matrix(0,-18,-18,-0,24.95625,149.10176)"/>
<use data-text="a" xlink:href="#font_3_97" transform="matrix(0,-18,-18,-0,24.95625,141.70377)"/>
<use data-text="c" xlink:href="#font_3_99" transform="matrix(0,-18,-18,-0,24.95625,130.66977)"/>
<use data-text="y" xlink:href="#font_3_121" transform="matrix(0,-18,-18,-0,24.95625,120.769779)"/>
<g clip-path="url(#clip_17)">
<path transform="matrix(1,0,0,-1,0,432)" stroke-width="2.3" stroke-linecap="square" stroke-linejoin="round" fill="none" stroke="#148b4b" d="M88.36363 83.37987 154.06061 179.50809 219.75759 223.87496 285.45457 260.84736 351.15153 283.0308 416.84849 297.81974 482.54545 327.39768 548.24246 345.88386 613.9394 356.9756 679.63638 371.76454"/>
<g clip-path="url(#clip_18)">
<path transform="matrix(1,0,0,-1,88.36364,348.62013)" d="M0-3C.795609-3 1.55874-2.683901 2.12132-2.12132 2.683901-1.55874 3-.795609 3 0 3 .795609 2.683901 1.55874 2.12132 2.12132 1.55874 2.683901 .795609 3 0 3-.795609 3-1.55874 2.683901-2.12132 2.12132-2.683901 1.55874-3 .795609-3 0-3-.795609-2.683901-1.55874-2.12132-2.12132-1.55874-2.683901-.795609-3 0-3Z" fill="#148b4b"/>
<path transform="matrix(1,0,0,-1,88.36364,348.62013)" stroke-width="1" stroke-linecap="butt" stroke-linejoin="round" fill="none" stroke="#148b4b" d="M0-3C.795609-3 1.55874-2.683901 2.12132-2.12132 2.683901-1.55874 3-.795609 3 0 3 .795609 2.683901 1.55874 2.12132 2.12132 1.55874 2.683901 .795609 3 0 3-.795609 3-1.55874 2.683901-2.12132 2.12132-2.683901 1.55874-3 .795609-3 0-3-.795609-2.683901-1.55874-2.12132-2.12132-1.55874-2.683901-.795609-3 0-3Z"/>
</g>
<g clip-path="url(#clip_19)">
<path transform="matrix(1,0,0,-1,154.06061,252.4919)" d="M0-3C.795609-3 1.55874-2.683901 2.12132-2.12132 2.683901-1.55874 3-.795609 3 0 3 .795609 2.683901 1.55874 2.12132 2.12132 1.55874 2.683901 .795609 3 0 3-.795609 3-1.55874 2.683901-2.12132 2.12132-2.683901 1.55874-3 .795609-3 0-3-.795609-2.683901-1.55874-2.12132-2.12132-1.55874-2.683901-.795609-3 0-3Z" fill="#148b4b"/>
<path transform="matrix(1,0,0,-1,154.06061,252.4919)" stroke-width="1" stroke-linecap="butt" stroke-linejoin="round" fill="none" stroke="#148b4b" d="M0-3C.795609-3 1.55874-2.683901 2.12132-2.12132 2.683901-1.55874 3-.795609 3 0 3 .795609 2.683901 1.55874 2.12132 2.12132 1.55874 2.683901 .795609 3 0 3-.795609 3-1.55874 2.683901-2.12132 2.12132-2.683901 1.55874-3 .795609-3 0-3-.795609-2.683901-1.55874-2.12132-2.12132-1.55874-2.683901-.795609-3 0-3Z"/>
</g>
<g clip-path="url(#clip_20)">
<path transform="matrix(1,0,0,-1,219.75757,208.12503)" d="M0-3C.795609-3 1.55874-2.683901 2.12132-2.12132 2.683901-1.55874 3-.795609 3 0 3 .795609 2.683901 1.55874 2.12132 2.12132 1.55874 2.683901 .795609 3 0 3-.795609 3-1.55874 2.683901-2.12132 2.12132-2.683901 1.55874-3 .795609-3 0-3-.795609-2.683901-1.55874-2.12132-2.12132-1.55874-2.683901-.795609-3 0-3Z" fill="#148b4b"/>
<path transform="matrix(1,0,0,-1,219.75757,208.12503)" stroke-width="1" stroke-linecap="butt" stroke-linejoin="round" fill="none" stroke="#148b4b" d="M0-3C.795609-3 1.55874-2.683901 2.12132-2.12132 2.683901-1.55874 3-.795609 3 0 3 .795609 2.683901 1.55874 2.12132 2.12132 1.55874 2.683901 .795609 3 0 3-.795609 3-1.55874 2.683901-2.12132 2.12132-2.683901 1.55874-3 .795609-3 0-3-.795609-2.683901-1.55874-2.12132-2.12132-1.55874-2.683901-.795609-3 0-3Z"/>
</g>
<g clip-path="url(#clip_21)">
<path transform="matrix(1,0,0,-1,285.45454,171.15264)" d="M0-3C.795609-3 1.55874-2.683901 2.12132-2.12132 2.683901-1.55874 3-.795609 3 0 3 .795609 2.683901 1.55874 2.12132 2.12132 1.55874 2.683901 .795609 3 0 3-.795609 3-1.55874 2.683901-2.12132 2.12132-2.683901 1.55874-3 .795609-3 0-3-.795609-2.683901-1.55874-2.12132-2.12132-1.55874-2.683901-.795609-3 0-3Z" fill="#148b4b"/>
<path transform="matrix(1,0,0,-1,285.45454,171.15264)" stroke-width="1" stroke-linecap="butt" stroke-linejoin="round" fill="none" stroke="#148b4b" d="M0-3C.795609-3 1.55874-2.683901 2.12132-2.12132 2.683901-1.55874 3-.795609 3 0 3 .795609 2.683901 1.55874 2.12132 2.12132 1.55874 2.683901 .795609 3 0 3-.795609 3-1.55874 2.683901-2.12132 2.12132-2.683901 1.55874-3 .795609-3 0-3-.795609-2.683901-1.55874-2.12132-2.12132-1.55874-2.683901-.795609-3 0-3Z"/>
</g>
<g clip-path="url(#clip_22)">
<path transform="matrix(1,0,0,-1,351.1515,148.9692)" d="M0-3C.795609-3 1.55874-2.683901 2.12132-2.12132 2.683901-1.55874 3-.795609 3 0 3 .795609 2.683901 1.55874 2.12132 2.12132 1.55874 2.683901 .795609 3 0 3-.795609 3-1.55874 2.683901-2.12132 2.12132-2.683901 1.55874-3 .795609-3 0-3-.795609-2.683901-1.55874-2.12132-2.12132-1.55874-2.683901-.795609-3 0-3Z" fill="#148b4b"/>
<path transform="matrix(1,0,0,-1,351.1515,148.9692)" stroke-width="1" stroke-linecap="butt" stroke-linejoin="round" fill="none" stroke="#148b4b" d="M0-3C.795609-3 1.55874-2.683901 2.12132-2.12132 2.683901-1.55874 3-.795609 3 0 3 .795609 2.683901 1.55874 2.12132 2.12132 1.55874 2.683901 .795609 3 0 3-.795609 3-1.55874 2.683901-2.12132 2.12132-2.683901 1.55874-3 .795609-3 0-3-.795609-2.683901-1.55874-2.12132-2.12132-1.55874-2.683901-.795609-3 0-3Z"/>
</g>
<g clip-path="url(#clip_23)">
<path transform="matrix(1,0,0,-1,416.84846,134.18024)" d="M0-3C.795609-3 1.55874-2.683901 2.12132-2.12132 2.683901-1.55874 3-.795609 3 0 3 .795609 2.683901 1.55874 2.12132 2.12132 1.55874 2.683901 .795609 3 0 3-.795609 3-1.55874 2.683901-2.12132 2.12132-2.683901 1.55874-3 .795609-3 0-3-.795609-2.683901-1.55874-2.12132-2.12132-1.55874-2.683901-.795609-3 0-3Z" fill="#148b4b"/>
<path transform="matrix(1,0,0,-1,416.84846,134.18024)" stroke-width="1" stroke-linecap="butt" stroke-linejoin="round" fill="none" stroke="#148b4b" d="M0-3C.795609-3 1.55874-2.683901 2.12132-2.12132 2.683901-1.55874 3-.795609 3 0 3 .795609 2.683901 1.55874 2.12132 2.12132 1.55874 2.683901 .795609 3 0 3-.795609 3-1.55874 2.683901-2.12132 2.12132-2.683901 1.55874-3 .795609-3 0-3-.795609-2.683901-1.55874-2.12132-2.12132-1.55874-2.683901-.795609-3 0-3Z"/>
</g>
<g clip-path="url(#clip_24)">
<path transform="matrix(1,0,0,-1,482.5454,104.602329)" d="M0-3C.795609-3 1.55874-2.683901 2.12132-2.12132 2.683901-1.55874 3-.795609 3 0 3 .795609 2.683901 1.55874 2.12132 2.12132 1.55874 2.683901 .795609 3 0 3-.795609 3-1.55874 2.683901-2.12132 2.12132-2.683901 1.55874-3 .795609-3 0-3-.795609-2.683901-1.55874-2.12132-2.12132-1.55874-2.683901-.795609-3 0-3Z" fill="#148b4b"/>
<path transform="matrix(1,0,0,-1,482.5454,104.602329)" stroke-width="1" stroke-linecap="butt" stroke-linejoin="round" fill="none" stroke="#148b4b" d="M0-3C.795609-3 1.55874-2.683901 2.12132-2.12132 2.683901-1.55874 3-.795609 3 0 3 .795609 2.683901 1.55874 2.12132 2.12132 1.55874 2.683901 .795609 3 0 3-.795609 3-1.55874 2.683901-2.12132 2.12132-2.683901 1.55874-3 .795609-3 0-3-.795609-2.683901-1.55874-2.12132-2.12132-1.55874-2.683901-.795609-3 0-3Z"/>
</g>
<g clip-path="url(#clip_25)">
<path transform="matrix(1,0,0,-1,548.2424,86.11613)" d="M0-3C.795609-3 1.55874-2.683901 2.12132-2.12132 2.683901-1.55874 3-.795609 3 0 3 .795609 2.683901 1.55874 2.12132 2.12132 1.55874 2.683901 .795609 3 0 3-.795609 3-1.55874 2.683901-2.12132 2.12132-2.683901 1.55874-3 .795609-3 0-3-.795609-2.683901-1.55874-2.12132-2.12132-1.55874-2.683901-.795609-3 0-3Z" fill="#148b4b"/>
<path transform="matrix(1,0,0,-1,548.2424,86.11613)" stroke-width="1" stroke-linecap="butt" stroke-linejoin="round" fill="none" stroke="#148b4b" d="M0-3C.795609-3 1.55874-2.683901 2.12132-2.12132 2.683901-1.55874 3-.795609 3 0 3 .795609 2.683901 1.55874 2.12132 2.12132 1.55874 2.683901 .795609 3 0 3-.795609 3-1.55874 2.683901-2.12132 2.12132-2.683901 1.55874-3 .795609-3 0-3-.795609-2.683901-1.55874-2.12132-2.12132-1.55874-2.683901-.795609-3 0-3Z"/>
</g>
<g clip-path="url(#clip_26)">
<path transform="matrix(1,0,0,-1,613.93936,75.02441)" d="M0-3C.795609-3 1.55874-2.683901 2.12132-2.12132 2.683901-1.55874 3-.795609 3 0 3 .795609 2.683901 1.55874 2.12132 2.12132 1.55874 2.683901 .795609 3 0 3-.795609 3-1.55874 2.683901-2.12132 2.12132-2.683901 1.55874-3 .795609-3 0-3-.795609-2.683901-1.55874-2.12132-2.12132-1.55874-2.683901-.795609-3 0-3Z" fill="#148b4b"/>
<path transform="matrix(1,0,0,-1,613.93936,75.02441)" stroke-width="1" stroke-linecap="butt" stroke-linejoin="round" fill="none" stroke="#148b4b" d="M0-3C.795609-3 1.55874-2.683901 2.12132-2.12132 2.683901-1.55874 3-.795609 3 0 3 .795609 2.683901 1.55874 2.12132 2.12132 1.55874 2.683901 .795609 3 0 3-.795609 3-1.55874 2.683901-2.12132 2.12132-2.683901 1.55874-3 .795609-3 0-3-.795609-2.683901-1.55874-2.12132-2.12132-1.55874-2.683901-.795609-3 0-3Z"/>
</g>
<g clip-path="url(#clip_27)">
<path transform="matrix(1,0,0,-1,679.6363,60.23545)" d="M0-3C.795609-3 1.55874-2.683901 2.12132-2.12132 2.683901-1.55874 3-.795609 3 0 3 .795609 2.683901 1.55874 2.12132 2.12132 1.55874 2.683901 .795609 3 0 3-.795609 3-1.55874 2.683901-2.12132 2.12132-2.683901 1.55874-3 .795609-3 0-3-.795609-2.683901-1.55874-2.12132-2.12132-1.55874-2.683901-.795609-3 0-3Z" fill="#148b4b"/>
<path transform="matrix(1,0,0,-1,679.6363,60.23545)" stroke-width="1" stroke-linecap="butt" stroke-linejoin="round" fill="none" stroke="#148b4b" d="M0-3C.795609-3 1.55874-2.683901 2.12132-2.12132 2.683901-1.55874 3-.795609 3 0 3 .795609 2.683901 1.55874 2.12132 2.12132 1.55874 2.683901 .795609 3 0 3-.795609 3-1.55874 2.683901-2.12132 2.12132-2.683901 1.55874-3 .795609-3 0-3-.795609-2.683901-1.55874-2.12132-2.12132-1.55874-2.683901-.795609-3 0-3Z"/>
</g>
</g>
<g clip-path="url(#clip_28)">
<path transform="matrix(1,0,0,-1,0,432)" stroke-width="2.3" stroke-linecap="butt" stroke-dasharray="2.3,3.795" stroke-linejoin="round" fill="none" stroke="#808080" d="M88.36363 305.21424H154.06061 219.75759 285.45457 351.15153 416.84849 482.54545 548.24246 613.9394 679.63638"/>
</g>
<g clip-path="url(#clip_29)">
<path transform="matrix(1,0,0,-1,0,432)" stroke-width="2.3" stroke-linecap="square" stroke-linejoin="round" fill="none" stroke="#ff6361" d="M88.36363 68.59091 154.06061 112.95778 219.75759 135.14122 285.45457 157.32465 351.15153 172.11362 416.84849 179.50809 482.54545 186.90258 548.24246 197.99428 613.9394 209.086 679.63638 216.48049"/>
<g clip-path="url(#clip_30)">
<path transform="matrix(1,0,0,-1,88.36364,363.4091)" d="M0-3C.795609-3 1.55874-2.683901 2.12132-2.12132 2.683901-1.55874 3-.795609 3 0 3 .795609 2.683901 1.55874 2.12132 2.12132 1.55874 2.683901 .795609 3 0 3-.795609 3-1.55874 2.683901-2.12132 2.12132-2.683901 1.55874-3 .795609-3 0-3-.795609-2.683901-1.55874-2.12132-2.12132-1.55874-2.683901-.795609-3 0-3Z" fill="#ff6361"/>
<path transform="matrix(1,0,0,-1,88.36364,363.4091)" stroke-width="1" stroke-linecap="butt" stroke-linejoin="round" fill="none" stroke="#ff6361" d="M0-3C.795609-3 1.55874-2.683901 2.12132-2.12132 2.683901-1.55874 3-.795609 3 0 3 .795609 2.683901 1.55874 2.12132 2.12132 1.55874 2.683901 .795609 3 0 3-.795609 3-1.55874 2.683901-2.12132 2.12132-2.683901 1.55874-3 .795609-3 0-3-.795609-2.683901-1.55874-2.12132-2.12132-1.55874-2.683901-.795609-3 0-3Z"/>
</g>
<g clip-path="url(#clip_31)">
<path transform="matrix(1,0,0,-1,154.06061,319.0422)" d="M0-3C.795609-3 1.55874-2.683901 2.12132-2.12132 2.683901-1.55874 3-.795609 3 0 3 .795609 2.683901 1.55874 2.12132 2.12132 1.55874 2.683901 .795609 3 0 3-.795609 3-1.55874 2.683901-2.12132 2.12132-2.683901 1.55874-3 .795609-3 0-3-.795609-2.683901-1.55874-2.12132-2.12132-1.55874-2.683901-.795609-3 0-3Z" fill="#ff6361"/>
<path transform="matrix(1,0,0,-1,154.06061,319.0422)" stroke-width="1" stroke-linecap="butt" stroke-linejoin="round" fill="none" stroke="#ff6361" d="M0-3C.795609-3 1.55874-2.683901 2.12132-2.12132 2.683901-1.55874 3-.795609 3 0 3 .795609 2.683901 1.55874 2.12132 2.12132 1.55874 2.683901 .795609 3 0 3-.795609 3-1.55874 2.683901-2.12132 2.12132-2.683901 1.55874-3 .795609-3 0-3-.795609-2.683901-1.55874-2.12132-2.12132-1.55874-2.683901-.795609-3 0-3Z"/>
</g>
<g clip-path="url(#clip_32)">
<path transform="matrix(1,0,0,-1,219.75757,296.85877)" d="M0-3C.795609-3 1.55874-2.683901 2.12132-2.12132 2.683901-1.55874 3-.795609 3 0 3 .795609 2.683901 1.55874 2.12132 2.12132 1.55874 2.683901 .795609 3 0 3-.795609 3-1.55874 2.683901-2.12132 2.12132-2.683901 1.55874-3 .795609-3 0-3-.795609-2.683901-1.55874-2.12132-2.12132-1.55874-2.683901-.795609-3 0-3Z" fill="#ff6361"/>
<path transform="matrix(1,0,0,-1,219.75757,296.85877)" stroke-width="1" stroke-linecap="butt" stroke-linejoin="round" fill="none" stroke="#ff6361" d="M0-3C.795609-3 1.55874-2.683901 2.12132-2.12132 2.683901-1.55874 3-.795609 3 0 3 .795609 2.683901 1.55874 2.12132 2.12132 1.55874 2.683901 .795609 3 0 3-.795609 3-1.55874 2.683901-2.12132 2.12132-2.683901 1.55874-3 .795609-3 0-3-.795609-2.683901-1.55874-2.12132-2.12132-1.55874-2.683901-.795609-3 0-3Z"/>
</g>
<g clip-path="url(#clip_33)">
<path transform="matrix(1,0,0,-1,285.45454,274.67533)" d="M0-3C.795609-3 1.55874-2.683901 2.12132-2.12132 2.683901-1.55874 3-.795609 3 0 3 .795609 2.683901 1.55874 2.12132 2.12132 1.55874 2.683901 .795609 3 0 3-.795609 3-1.55874 2.683901-2.12132 2.12132-2.683901 1.55874-3 .795609-3 0-3-.795609-2.683901-1.55874-2.12132-2.12132-1.55874-2.683901-.795609-3 0-3Z" fill="#ff6361"/>
<path transform="matrix(1,0,0,-1,285.45454,274.67533)" stroke-width="1" stroke-linecap="butt" stroke-linejoin="round" fill="none" stroke="#ff6361" d="M0-3C.795609-3 1.55874-2.683901 2.12132-2.12132 2.683901-1.55874 3-.795609 3 0 3 .795609 2.683901 1.55874 2.12132 2.12132 1.55874 2.683901 .795609 3 0 3-.795609 3-1.55874 2.683901-2.12132 2.12132-2.683901 1.55874-3 .795609-3 0-3-.795609-2.683901-1.55874-2.12132-2.12132-1.55874-2.683901-.795609-3 0-3Z"/>
</g>
<g clip-path="url(#clip_34)">
<path transform="matrix(1,0,0,-1,351.1515,259.88636)" d="M0-3C.795609-3 1.55874-2.683901 2.12132-2.12132 2.683901-1.55874 3-.795609 3 0 3 .795609 2.683901 1.55874 2.12132 2.12132 1.55874 2.683901 .795609 3 0 3-.795609 3-1.55874 2.683901-2.12132 2.12132-2.683901 1.55874-3 .795609-3 0-3-.795609-2.683901-1.55874-2.12132-2.12132-1.55874-2.683901-.795609-3 0-3Z" fill="#ff6361"/>
<path transform="matrix(1,0,0,-1,351.1515,259.88636)" stroke-width="1" stroke-linecap="butt" stroke-linejoin="round" fill="none" stroke="#ff6361" d="M0-3C.795609-3 1.55874-2.683901 2.12132-2.12132 2.683901-1.55874 3-.795609 3 0 3 .795609 2.683901 1.55874 2.12132 2.12132 1.55874 2.683901 .795609 3 0 3-.795609 3-1.55874 2.683901-2.12132 2.12132-2.683901 1.55874-3 .795609-3 0-3-.795609-2.683901-1.55874-2.12132-2.12132-1.55874-2.683901-.795609-3 0-3Z"/>
</g>
<g clip-path="url(#clip_35)">
<path transform="matrix(1,0,0,-1,416.84846,252.49187)" d="M0-3C.795609-3 1.55874-2.683901 2.12132-2.12132 2.683901-1.55874 3-.795609 3 0 3 .795609 2.683901 1.55874 2.12132 2.12132 1.55874 2.683901 .795609 3 0 3-.795609 3-1.55874 2.683901-2.12132 2.12132-2.683901 1.55874-3 .795609-3 0-3-.795609-2.683901-1.55874-2.12132-2.12132-1.55874-2.683901-.795609-3 0-3Z" fill="#ff6361"/>
<path transform="matrix(1,0,0,-1,416.84846,252.49187)" stroke-width="1" stroke-linecap="butt" stroke-linejoin="round" fill="none" stroke="#ff6361" d="M0-3C.795609-3 1.55874-2.683901 2.12132-2.12132 2.683901-1.55874 3-.795609 3 0 3 .795609 2.683901 1.55874 2.12132 2.12132 1.55874 2.683901 .795609 3 0 3-.795609 3-1.55874 2.683901-2.12132 2.12132-2.683901 1.55874-3 .795609-3 0-3-.795609-2.683901-1.55874-2.12132-2.12132-1.55874-2.683901-.795609-3 0-3Z"/>
</g>
<g clip-path="url(#clip_36)">
<path transform="matrix(1,0,0,-1,482.5454,245.09738)" d="M0-3C.795609-3 1.55874-2.683901 2.12132-2.12132 2.683901-1.55874 3-.795609 3 0 3 .795609 2.683901 1.55874 2.12132 2.12132 1.55874 2.683901 .795609 3 0 3-.795609 3-1.55874 2.683901-2.12132 2.12132-2.683901 1.55874-3 .795609-3 0-3-.795609-2.683901-1.55874-2.12132-2.12132-1.55874-2.683901-.795609-3 0-3Z" fill="#ff6361"/>
<path transform="matrix(1,0,0,-1,482.5454,245.09738)" stroke-width="1" stroke-linecap="butt" stroke-linejoin="round" fill="none" stroke="#ff6361" d="M0-3C.795609-3 1.55874-2.683901 2.12132-2.12132 2.683901-1.55874 3-.795609 3 0 3 .795609 2.683901 1.55874 2.12132 2.12132 1.55874 2.683901 .795609 3 0 3-.795609 3-1.55874 2.683901-2.12132 2.12132-2.683901 1.55874-3 .795609-3 0-3-.795609-2.683901-1.55874-2.12132-2.12132-1.55874-2.683901-.795609-3 0-3Z"/>
</g>
<g clip-path="url(#clip_37)">
<path transform="matrix(1,0,0,-1,548.2424,234.00566)" d="M0-3C.795609-3 1.55874-2.683901 2.12132-2.12132 2.683901-1.55874 3-.795609 3 0 3 .795609 2.683901 1.55874 2.12132 2.12132 1.55874 2.683901 .795609 3 0 3-.795609 3-1.55874 2.683901-2.12132 2.12132-2.683901 1.55874-3 .795609-3 0-3-.795609-2.683901-1.55874-2.12132-2.12132-1.55874-2.683901-.795609-3 0-3Z" fill="#ff6361"/>
<path transform="matrix(1,0,0,-1,548.2424,234.00566)" stroke-width="1" stroke-linecap="butt" stroke-linejoin="round" fill="none" stroke="#ff6361" d="M0-3C.795609-3 1.55874-2.683901 2.12132-2.12132 2.683901-1.55874 3-.795609 3 0 3 .795609 2.683901 1.55874 2.12132 2.12132 1.55874 2.683901 .795609 3 0 3-.795609 3-1.55874 2.683901-2.12132 2.12132-2.683901 1.55874-3 .795609-3 0-3-.795609-2.683901-1.55874-2.12132-2.12132-1.55874-2.683901-.795609-3 0-3Z"/>
</g>
<g clip-path="url(#clip_38)">
<path transform="matrix(1,0,0,-1,613.93936,222.91394)" d="M0-3C.795609-3 1.55874-2.683901 2.12132-2.12132 2.683901-1.55874 3-.795609 3 0 3 .795609 2.683901 1.55874 2.12132 2.12132 1.55874 2.683901 .795609 3 0 3-.795609 3-1.55874 2.683901-2.12132 2.12132-2.683901 1.55874-3 .795609-3 0-3-.795609-2.683901-1.55874-2.12132-2.12132-1.55874-2.683901-.795609-3 0-3Z" fill="#ff6361"/>
<path transform="matrix(1,0,0,-1,613.93936,222.91394)" stroke-width="1" stroke-linecap="butt" stroke-linejoin="round" fill="none" stroke="#ff6361" d="M0-3C.795609-3 1.55874-2.683901 2.12132-2.12132 2.683901-1.55874 3-.795609 3 0 3 .795609 2.683901 1.55874 2.12132 2.12132 1.55874 2.683901 .795609 3 0 3-.795609 3-1.55874 2.683901-2.12132 2.12132-2.683901 1.55874-3 .795609-3 0-3-.795609-2.683901-1.55874-2.12132-2.12132-1.55874-2.683901-.795609-3 0-3Z"/>
</g>
<g clip-path="url(#clip_39)">
<path transform="matrix(1,0,0,-1,679.6363,215.51946)" d="M0-3C.795609-3 1.55874-2.683901 2.12132-2.12132 2.683901-1.55874 3-.795609 3 0 3 .795609 2.683901 1.55874 2.12132 2.12132 1.55874 2.683901 .795609 3 0 3-.795609 3-1.55874 2.683901-2.12132 2.12132-2.683901 1.55874-3 .795609-3 0-3-.795609-2.683901-1.55874-2.12132-2.12132-1.55874-2.683901-.795609-3 0-3Z" fill="#ff6361"/>
<path transform="matrix(1,0,0,-1,679.6363,215.51946)" stroke-width="1" stroke-linecap="butt" stroke-linejoin="round" fill="none" stroke="#ff6361" d="M0-3C.795609-3 1.55874-2.683901 2.12132-2.12132 2.683901-1.55874 3-.795609 3 0 3 .795609 2.683901 1.55874 2.12132 2.12132 1.55874 2.683901 .795609 3 0 3-.795609 3-1.55874 2.683901-2.12132 2.12132-2.683901 1.55874-3 .795609-3 0-3-.795609-2.683901-1.55874-2.12132-2.12132-1.55874-2.683901-.795609-3 0-3Z"/>
</g>
</g>
<path transform="matrix(1,0,0,-1,0,432)" stroke-width=".8" stroke-linecap="square" stroke-miterlimit="10" stroke-linejoin="miter" fill="none" stroke="#000000" d="M58.8 52.8V400.2"/>
<path transform="matrix(1,0,0,-1,0,432)" stroke-width=".8" stroke-linecap="square" stroke-miterlimit="10" stroke-linejoin="miter" fill="none" stroke="#000000" d="M709.2 52.8V400.2"/>
<path transform="matrix(1,0,0,-1,0,432)" stroke-width=".8" stroke-linecap="square" stroke-miterlimit="10" stroke-linejoin="miter" fill="none" stroke="#000000" d="M58.8 52.8H709.2"/>
<path transform="matrix(1,0,0,-1,0,432)" stroke-width=".8" stroke-linecap="square" stroke-miterlimit="10" stroke-linejoin="miter" fill="none" stroke="#000000" d="M58.8 400.2H709.2"/>
<use data-text="O" xlink:href="#font_3_79" transform="matrix(20,0,0,-20,328.875,25.799988)"/>
<use data-text="M" xlink:href="#font_3_77" transform="matrix(20,0,0,-20,344.615,25.799988)"/>
<use data-text="N" xlink:href="#font_3_78" transform="matrix(20,0,0,-20,361.875,25.799988)"/>
<use data-text="I" xlink:href="#font_3_73" transform="matrix(20,0,0,-20,376.835,25.799988)"/>
<use data-text=" " xlink:href="#font_3_32" transform="matrix(20,0,0,-20,382.735,25.799988)"/>
<use data-text="M" xlink:href="#font_3_77" transform="matrix(20,0,0,-20,389.095,25.799988)"/>
<use data-text="a" xlink:href="#font_3_97" transform="matrix(20,0,0,-20,406.355,25.799988)"/>
<use data-text="t" xlink:href="#font_3_116" transform="matrix(20,0,0,-20,418.615,25.799988)"/>
<use data-text="h" xlink:href="#font_3_104" transform="matrix(20,0,0,-20,426.45503,25.799988)"/>
<g>
<path transform="matrix(1,0,0,-1,0,432)" d="M467.275 61.3H697.3C699.56668 61.3 700.7 62.433336 700.7 64.7V137.85938C700.7 140.12604 699.56668 141.25937 697.3 141.25937H467.275C465.00834 141.25937 463.875 140.12604 463.875 137.85938V64.7C463.875 62.433336 465.00834 61.3 467.275 61.3Z" fill="#ffffff" fill-opacity=".8"/>
<path transform="matrix(1,0,0,-1,0,432)" stroke-width="1" stroke-linecap="butt" stroke-miterlimit="10" stroke-linejoin="miter" fill="none" stroke="#cccccc" stroke-opacity=".8" d="M467.275 61.3H697.3C699.56668 61.3 700.7 62.433336 700.7 64.7V137.85938C700.7 140.12604 699.56668 141.25937 697.3 141.25937H467.275C465.00834 141.25937 463.875 140.12604 463.875 137.85938V64.7C463.875 62.433336 465.00834 61.3 467.275 61.3Z"/>
</g>
<path transform="matrix(1,0,0,-1,0,432)" stroke-width="2.3" stroke-linecap="square" stroke-linejoin="round" fill="none" stroke="#148b4b" d="M470.675 127.4875H487.675 504.675"/>
<path transform="matrix(1,0,0,-1,0,432)" d="M487.675 124.4875C488.4706 124.4875 489.23374 124.8036 489.79634 125.36618 490.3589 125.92876 490.675 126.691898 490.675 127.4875 490.675 128.28311 490.3589 129.04624 489.79634 129.60883 489.23374 130.1714 488.4706 130.4875 487.675 130.4875 486.8794 130.4875 486.11628 130.1714 485.55369 129.60883 484.9911 129.04624 484.675 128.28311 484.675 127.4875 484.675 126.691898 484.9911 125.92876 485.55369 125.36618 486.11628 124.8036 486.8794 124.4875 487.675 124.4875Z" fill="#148b4b"/>
<path transform="matrix(1,0,0,-1,0,432)" stroke-width="1" stroke-linecap="butt" stroke-linejoin="round" fill="none" stroke="#148b4b" d="M487.675 124.4875C488.4706 124.4875 489.23374 124.8036 489.79634 125.36618 490.3589 125.92876 490.675 126.691898 490.675 127.4875 490.675 128.28311 490.3589 129.04624 489.79634 129.60883 489.23374 130.1714 488.4706 130.4875 487.675 130.4875 486.8794 130.4875 486.11628 130.1714 485.55369 129.60883 484.9911 129.04624 484.675 128.28311 484.675 127.4875 484.675 126.691898 484.9911 125.92876 485.55369 125.36618 486.11628 124.8036 486.8794 124.4875 487.675 124.4875Z"/>
<use data-text="S" xlink:href="#font_3_83" transform="matrix(17,0,0,-17,518.275,310.4625)"/>
<use data-text="e" xlink:href="#font_3_101" transform="matrix(17,0,0,-17,529.07,310.4625)"/>
<use data-text="l" xlink:href="#font_3_108" transform="matrix(17,0,0,-17,539.525,310.4625)"/>
<use data-text="f" xlink:href="#font_3_102" transform="matrix(17,0,0,-17,544.25106,310.4625)"/>
<use data-text="-" xlink:href="#font_3_45" transform="matrix(17,0,0,-17,549.3132,310.4625)"/>
<use data-text="I" xlink:href="#font_3_73" transform="matrix(17,0,0,-17,555.45016,310.4625)"/>
<use data-text="m" xlink:href="#font_3_109" transform="matrix(17,0,0,-17,560.46517,310.4625)"/>
<use data-text="p" xlink:href="#font_3_112" transform="matrix(17,0,0,-17,577.02316,310.4625)"/>
<use data-text="r" xlink:href="#font_3_114" transform="matrix(17,0,0,-17,587.8181,310.4625)"/>
<use data-text="o" xlink:href="#font_3_111" transform="matrix(17,0,0,-17,594.4458,310.4625)"/>
<use data-text="v" xlink:href="#font_3_118" transform="matrix(17,0,0,-17,604.8498,310.4625)"/>
<use data-text="e" xlink:href="#font_3_101" transform="matrix(17,0,0,-17,614.91378,310.4625)"/>
<use data-text="m" xlink:href="#font_3_109" transform="matrix(17,0,0,-17,625.3688,310.4625)"/>
<use data-text="e" xlink:href="#font_3_101" transform="matrix(17,0,0,-17,641.92678,310.4625)"/>
<use data-text="n" xlink:href="#font_3_110" transform="matrix(17,0,0,-17,652.3818,310.4625)"/>
<use data-text="t" xlink:href="#font_3_116" transform="matrix(17,0,0,-17,663.1598,310.4625)"/>
<path transform="matrix(1,0,0,-1,0,432)" stroke-width="2.3" stroke-linecap="butt" stroke-dasharray="2.3,3.795" stroke-linejoin="round" fill="none" stroke="#808080" d="M470.675 102.53438H487.675 504.675"/>
<use data-text="D" xlink:href="#font_3_68" transform="matrix(17,0,0,-17,518.275,335.41563)"/>
<use data-text="i" xlink:href="#font_3_105" transform="matrix(17,0,0,-17,531.36508,335.41563)"/>
<use data-text="d" xlink:href="#font_3_100" transform="matrix(17,0,0,-17,536.091,335.41563)"/>
<use data-text="a" xlink:href="#font_3_97" transform="matrix(17,0,0,-17,546.88607,335.41563)"/>
<use data-text="c" xlink:href="#font_3_99" transform="matrix(17,0,0,-17,557.307,335.41563)"/>
<use data-text="t" xlink:href="#font_3_116" transform="matrix(17,0,0,-17,566.65707,335.41563)"/>
<use data-text="i" xlink:href="#font_3_105" transform="matrix(17,0,0,-17,573.32107,335.41563)"/>
<use data-text="c" xlink:href="#font_3_99" transform="matrix(17,0,0,-17,578.04708,335.41563)"/>
<use data-text=" " xlink:href="#font_3_32" transform="matrix(17,0,0,-17,587.39706,335.41563)"/>
<use data-text="I" xlink:href="#font_3_73" transform="matrix(17,0,0,-17,592.80307,335.41563)"/>
<use data-text="n" xlink:href="#font_3_110" transform="matrix(17,0,0,-17,597.81808,335.41563)"/>
<use data-text="t" xlink:href="#font_3_116" transform="matrix(17,0,0,-17,608.596,335.41563)"/>
<use data-text="e" xlink:href="#font_3_101" transform="matrix(17,0,0,-17,615.26,335.41563)"/>
<use data-text="r" xlink:href="#font_3_114" transform="matrix(17,0,0,-17,625.715,335.41563)"/>
<use data-text="a" xlink:href="#font_3_97" transform="matrix(17,0,0,-17,632.702,335.41563)"/>
<use data-text="c" xlink:href="#font_3_99" transform="matrix(17,0,0,-17,643.12307,335.41563)"/>
<use data-text="t" xlink:href="#font_3_116" transform="matrix(17,0,0,-17,652.473,335.41563)"/>
<use data-text="i" xlink:href="#font_3_105" transform="matrix(17,0,0,-17,659.137,335.41563)"/>
<use data-text="o" xlink:href="#font_3_111" transform="matrix(17,0,0,-17,663.86306,335.41563)"/>
<use data-text="n" xlink:href="#font_3_110" transform="matrix(17,0,0,-17,674.267,335.41563)"/>
<use data-text="s" xlink:href="#font_3_115" transform="matrix(17,0,0,-17,685.04507,335.41563)"/>
<path transform="matrix(1,0,0,-1,0,432)" stroke-width="2.3" stroke-linecap="square" stroke-linejoin="round" fill="none" stroke="#ff6361" d="M470.675 77.58125H487.675 504.675"/>
<path transform="matrix(1,0,0,-1,0,432)" d="M487.675 74.58125C488.4706 74.58125 489.23374 74.89735 489.79634 75.45993 490.3589 76.02251 490.675 76.785648 490.675 77.58125 490.675 78.37686 490.3589 79.13999 489.79634 79.70257 489.23374 80.26515 488.4706 80.58125 487.675 80.58125 486.8794 80.58125 486.11628 80.26515 485.55369 79.70257 484.9911 79.13999 484.675 78.37686 484.675 77.58125 484.675 76.785648 484.9911 76.02251 485.55369 75.45993 486.11628 74.89735 486.8794 74.58125 487.675 74.58125Z" fill="#ff6361"/>
<path transform="matrix(1,0,0,-1,0,432)" stroke-width="1" stroke-linecap="butt" stroke-linejoin="round" fill="none" stroke="#ff6361" d="M487.675 74.58125C488.4706 74.58125 489.23374 74.89735 489.79634 75.45993 490.3589 76.02251 490.675 76.785648 490.675 77.58125 490.675 78.37686 490.3589 79.13999 489.79634 79.70257 489.23374 80.26515 488.4706 80.58125 487.675 80.58125 486.8794 80.58125 486.11628 80.26515 485.55369 79.70257 484.9911 79.13999 484.675 78.37686 484.675 77.58125 484.675 76.785648 484.9911 76.02251 485.55369 75.45993 486.11628 74.89735 486.8794 74.58125 487.675 74.58125Z"/>
<use data-text="B" xlink:href="#font_3_66" transform="matrix(17,0,0,-17,518.275,360.36875)"/>
<use data-text="a" xlink:href="#font_3_97" transform="matrix(17,0,0,-17,529.937,360.36875)"/>
<use data-text="s" xlink:href="#font_3_115" transform="matrix(17,0,0,-17,540.35806,360.36875)"/>
<use data-text="e" xlink:href="#font_3_101" transform="matrix(17,0,0,-17,549.215,360.36875)"/>
<use data-text="l" xlink:href="#font_3_108" transform="matrix(17,0,0,-17,559.67007,360.36875)"/>
<use data-text="i" xlink:href="#font_3_105" transform="matrix(17,0,0,-17,564.396,360.36875)"/>
<use data-text="n" xlink:href="#font_3_110" transform="matrix(17,0,0,-17,569.122,360.36875)"/>
<use data-text="e" xlink:href="#font_3_101" transform="matrix(17,0,0,-17,579.9,360.36875)"/>
</svg>
